<svg xmlns="http://www.w3.org/2000/svg" viewBox="0 0 336.4 217.51">
    <title>conduhierro_logo</title>
    <g id="Layer_3" data-name="Layer 3">
        <path class="cls-1" d="M28.08,195c0,.38-.21.57-.61.57H10.93a.78.78,0,0,0-.57.23l-1.88,1.81a.69.69,0,0,0-.19.53v12.7a.69.69,0,0,0,.19.57L11,213.74a1,1,0,0,0,.65.23H27.47a.55.55,0,0,1,.61.62v2.8a.54.54,0,0,1-.61.61h-20a1.35,1.35,0,0,1-1-.42l-5.1-4.8a1.11,1.11,0,0,1-.35-.84V196.33a1.13,1.13,0,0,1,.35-.85l3.72-3.56a1.35,1.35,0,0,1,1-.42H27.47a.54.54,0,0,1,.61.61Z"/>
        <path class="cls-1" d="M62,195.41a1.4,1.4,0,0,1,.42,1v16.61a1.42,1.42,0,0,1-.42,1l-3.73,3.56a1.24,1.24,0,0,1-.92.35H36.44a1.25,1.25,0,0,1-.92-.35l-3.72-3.56a1.42,1.42,0,0,1-.42-1V196.44a1.4,1.4,0,0,1,.42-1l3.72-3.57a1.25,1.25,0,0,1,.92-.34h20.9a1.23,1.23,0,0,1,.92.34Zm-8.79.42a1,1,0,0,0-.73-.31H41.31a1,1,0,0,0-.73.31l-1.72,1.69a.93.93,0,0,0-.27.69v13.08a.93.93,0,0,0,.27.69l1.72,1.69a1,1,0,0,0,.73.3H52.47a1,1,0,0,0,.73-.3L54.93,212a.93.93,0,0,0,.27-.69V198.21a.93.93,0,0,0-.27-.69Z"/>
        <path class="cls-1" d="M96.31,217c0,.69-.32,1-1,1H91.56a2.57,2.57,0,0,1-1.88-.81L71.42,200.05v17.34c0,.41-.19.61-.57.61H66.59c-.39,0-.58-.2-.58-.61V192.53c0-.69.32-1,1-1h3.8a2.57,2.57,0,0,1,1.88.8l18.1,17.22V192.11a.54.54,0,0,1,.62-.61h4.37c.38,0,.57.2.57.61Z"/>
        <path class="cls-1" d="M131.1,196.56a1,1,0,0,1,.35.8v13.39a1.49,1.49,0,0,1-.06.5,1.15,1.15,0,0,1-.29.38L125,217.46a1.73,1.73,0,0,1-1.39.54H101.26c-.74,0-1.11-.38-1.11-1.15V192.61a1,1,0,0,1,1.11-1.11H125a2.23,2.23,0,0,1,1.53.53Zm-9.39-.69a1.21,1.21,0,0,0-.89-.35H108a.47.47,0,0,0-.53.54v17.26c0,.44.2.65.61.65h12a1.17,1.17,0,0,0,.84-.3l2.95-2.81a1,1,0,0,0,.31-.72V198.67a.86.86,0,0,0-.27-.65Z"/>
        <path class="cls-1" d="M165.85,212.71a.9.9,0,0,1-.34.76l-4.14,4A2.1,2.1,0,0,1,160,218H140.77a2.08,2.08,0,0,1-1.42-.54l-4.14-4a.91.91,0,0,1-.35-.76v-20.6a.54.54,0,0,1,.61-.61h6.1c.39,0,.58.2.58.61v19.18a.72.72,0,0,0,.23.5l2.19,2a.64.64,0,0,0,.49.19h10.71a.64.64,0,0,0,.49-.19l2.19-2a.72.72,0,0,0,.23-.5V192.11c0-.41.19-.61.58-.61h6a.54.54,0,0,1,.61.61Z"/>
        <path class="cls-1" d="M199.51,216.52a.51.51,0,0,1-.58.57H193.4a.51.51,0,0,1-.58-.57V206.19H177.39v10.33a.5.5,0,0,1-.57.57h-5.68c-.36,0-.53-.19-.53-.57V193c0-.38.17-.57.53-.57h5.68a.5.5,0,0,1,.57.57v9.64h15.43V193a.51.51,0,0,1,.58-.57h5.53a.51.51,0,0,1,.58.57Z"/>
        <path class="cls-1" d="M210.15,216.52a.5.5,0,0,1-.57.57H203.9a.5.5,0,0,1-.57-.57V193a.5.5,0,0,1,.57-.57h5.68a.5.5,0,0,1,.57.57Z"/>
        <path class="cls-1" d="M239.69,195.62q0,.54-.57.54H223.05a.79.79,0,0,0-.58.25L220.83,198a.84.84,0,0,0-.25.64v4h18.29c.38,0,.57.18.57.53v2.54q0,.54-.57.54H220.58v4.07a.82.82,0,0,0,.25.61l2.29,2.14a.8.8,0,0,0,.6.25h15.44a.5.5,0,0,1,.57.57v2.61a.5.5,0,0,1-.57.57H219.9a1.7,1.7,0,0,1-1.07-.39l-4.71-4.47a1,1,0,0,1-.33-.78V196.91a1.06,1.06,0,0,1,.33-.79l3.42-3.29a1.39,1.39,0,0,1,1-.42h20.58a.5.5,0,0,1,.57.57Z"/>
        <path class="cls-1" d="M271.38,196.12a1.07,1.07,0,0,1,.29.79v5.71a1.6,1.6,0,0,1-.47,1.18l-3,2.82,4,8.4a2.47,2.47,0,0,1,.19.5,2,2,0,0,1,.06.53v.4a1,1,0,0,1-.09.46c-.06.12-.22.18-.49.18h-5.39a.6.6,0,0,1-.57-.39l-3.61-8.51H249.52v8.33a.5.5,0,0,1-.57.57h-5.61q-.54,0-.54-.57V193.44a.89.89,0,0,1,1-1h23a1.45,1.45,0,0,1,1.07.42Zm-8.32.25a.81.81,0,0,0-.58-.21H250.12c-.4,0-.6.22-.6.67v7.76h13l2.14-2a.73.73,0,0,0,.25-.5v-3.58a.78.78,0,0,0-.25-.57Z"/>
        <path class="cls-1" d="M303.71,196.12a1.06,1.06,0,0,1,.28.79v5.71a1.59,1.59,0,0,1-.46,1.18l-3,2.82,4,8.4a2.47,2.47,0,0,1,.19.5,2,2,0,0,1,.06.53v.4a1,1,0,0,1-.09.46c-.06.12-.22.18-.49.18h-5.39a.6.6,0,0,1-.57-.39l-3.61-8.51H281.85v8.33a.51.51,0,0,1-.58.57h-5.6q-.54,0-.54-.57V193.44a.89.89,0,0,1,1-1h23a1.45,1.45,0,0,1,1.07.42Zm-8.32.25a.81.81,0,0,0-.58-.21H282.45c-.4,0-.6.22-.6.67v7.76h13l2.14-2a.73.73,0,0,0,.25-.5v-3.58a.78.78,0,0,0-.25-.57Z"/>
        <path class="cls-1" d="M335.07,196.05a1.28,1.28,0,0,1,.4,1v15.47a1.31,1.31,0,0,1-.4,1l-3.46,3.32a1.17,1.17,0,0,1-.86.32H311.28a1.16,1.16,0,0,1-.85-.32L307,213.45a1.34,1.34,0,0,1-.39-1V197a1.3,1.3,0,0,1,.39-1l3.47-3.32a1.12,1.12,0,0,1,.85-.32h19.47a1.13,1.13,0,0,1,.86.32Zm-8.18.39a.91.91,0,0,0-.67-.28h-10.4a.93.93,0,0,0-.68.28L313.53,198a.91.91,0,0,0-.25.65v12.18a.88.88,0,0,0,.25.64l1.61,1.57a.94.94,0,0,0,.68.29h10.4a.92.92,0,0,0,.67-.29l1.61-1.57a.84.84,0,0,0,.25-.64V198.66a.87.87,0,0,0-.25-.65Z"/>
        <path class="cls-1" d="M215.48,76.05a130,130,0,0,1,35.23,4.84V.13H187.87V51.19H148.59V.13H85.76v165h6.38A130,130,0,0,1,215.48,76.05Z"/>
        <polygon class="cls-2" points="187.64 110.68 219.08 92.53 250.53 110.68 250.53 146.99 219.08 165.14 187.64 146.99 187.64 110.68"/>
    </g>
</svg>